<?xml version="1.0" encoding="utf-8"?>
<svg viewBox="0 0 224.00001 329.94594" xmlns="http://www.w3.org/2000/svg" xmlns:bx="https://boxy-svg.com">
  <defs>
    <linearGradient x1="240" y1="15.02703" x2="240" y2="344.97297" gradientUnits="userSpaceOnUse" id="color-1">
      <stop offset="0" stop-color="#ffee89"/>
      <stop offset="1" stop-color="#000fff"/>
    </linearGradient>
    <style bx:fonts="Open Sans" bx:pinned="true">@import url(https://fonts.googleapis.com/css2?family=Open+Sans%3Aital%2Cwght%400%2C300%3B0%2C400%3B0%2C600%3B0%2C700%3B0%2C800%3B1%2C300%3B1%2C400%3B1%2C600%3B1%2C700%3B1%2C800&amp;display=swap);</style>
  </defs>
  <g transform="matrix(1, 0, 0, 1, -128, -15.02702)">
    <g data-paper-data="{&quot;isPaintingLayer&quot;:true}" fill-rule="nonzero" stroke="none" stroke-linecap="butt" stroke-linejoin="miter" stroke-miterlimit="10" stroke-dasharray="" stroke-dashoffset="0" style="mix-blend-mode: normal">
      <path d="M134,339.97297c0,0 -6,-2.6111 -6,-15.47297c0,-63.85843 0,-257.15162 0,-291c0,-9.90349 5,-12.47297 5,-12.47297c0,0 2.22147,-6 10.20313,-6c24.38543,0 150.47211,0 194,0c9.27111,0 11.79688,4 11.79688,4c0,0 3,3.539 3,12.47297c0,31.8374 0,220.85561 0,289c0,15.27202 -4,16.47297 -4,16.47297c0,0 -5.7326,8 -15.79688,8c-26.8652,0 -146.13545,0 -187,0c-8.30226,0 -11.20313,-5 -11.20313,-5z" stroke-width="NaN" fill="url(#color-1)"/>
      <path d="M142.5,168v-138h195v138z" stroke-width="0" fill="#000000"/>
    </g>
  </g>
  <text style="fill: rgb(255, 253, 192); font-family: &quot;Open Sans&quot;; font-size: 36.2px; white-space: pre;" transform="matrix(0.444742, 0, 0, 0.402196, -86.931091, 96.352875)" x="228.007" y="184.577">&lt;X&gt;</text>
  <text style="fill: rgb(255, 255, 255); font-family: &quot;Open Sans&quot;; font-size: 16.9px; white-space: pre;" x="37.398" y="193.157">Sport: &lt;A&gt;</text>
  <text style="fill: rgb(255, 255, 255); font-family: &quot;Open Sans&quot;; font-size: 16.9px; white-space: pre;" x="37.022" y="217.58">Kultuur: &lt;B&gt;</text>
  <text style="fill: rgb(255, 255, 255); font-family: &quot;Open Sans&quot;; font-size: 16.9px; white-space: pre;" x="35.814" y="241.407">Akademie: &lt;C&gt;</text>
  <text style="white-space: pre; fill: rgb(51, 51, 51); font-family: Arial, sans-serif; font-size: 16.9px;" x="13.27" y="316.676"> </text>
  <text style="fill: rgb(255, 255, 255); font-family: Arial, sans-serif; font-size: 9.8px; white-space: pre;" x="26.759" y="320.013">Copyright Unikaarte</text>
  <path d="M 182.519 193.311 Q 182.786 192.962 183.287 192.958 Q 183.838 192.953 184.298 193.383 Q 184.815 193.866 184.934 194.644 Q 185.068 195.516 184.638 196.374 Q 184.161 197.328 183.169 197.895 Q 182.078 198.518 180.75 198.45 Q 179.303 198.375 178.056 197.504 Q 176.709 196.563 176.027 194.991 Q 175.294 193.304 175.553 191.413 Q 175.829 189.397 177.148 187.757 Q 178.547 186.018 180.705 185.218 Q 182.984 184.374 185.441 184.825 Q 188.026 185.3 190.06 187.07 Q 192.193 188.925 193.108 191.671 Q 194.065 194.541 193.42 197.566 Q 192.748 200.719 190.526 203.147 Q 188.216 205.673 184.881 206.704 Q 181.42 207.774 177.828 206.935 Q 174.106 206.066 171.283 203.392 Q 168.364 200.627 167.217 196.703 Q 166.033 192.652 167.067 188.492 Q 168.133 184.202 171.26 180.984 Q 174.479 177.671 178.992 176.409 Q 183.634 175.111 188.363 176.34 Q 193.221 177.602 196.833 181.182 Q 200.541 184.856 201.918 189.958 Q 203.33 195.19 201.906 200.487 Q 200.447 205.914 196.414 209.921 Q 192.286 214.022 186.594 215.514 Q 180.772 217.04 174.906 215.421 Q 168.912 213.766 164.51 209.28 Q 160.015 204.698 158.407 198.416 Q 156.767 192.003 158.582 185.57 Q 160.432 179.007 165.372 174.211 Q 170.408 169.321 177.28 167.599 Q 184.283 165.844 191.285 167.854 Q 198.416 169.901 203.607 175.294 Q 208.89 180.784 210.727 188.246 Q 212.439 195.198 210.715 202.204" style="fill: none; stroke: rgb(255, 242, 0);" bx:shape="spiral 182.365 193.759 0 29.581 19 1186.587 1@a36fa60b"/>
  <path d="M 34.91 278.524 Q 35.177 278.175 35.678 278.171 Q 36.229 278.166 36.689 278.596 Q 37.206 279.079 37.325 279.857 Q 37.459 280.729 37.029 281.587 Q 36.552 282.541 35.56 283.108 Q 34.469 283.731 33.141 283.663 Q 31.694 283.588 30.447 282.717 Q 29.1 281.776 28.418 280.204 Q 27.685 278.517 27.944 276.626 Q 28.22 274.61 29.539 272.97 Q 30.938 271.231 33.096 270.431 Q 35.375 269.587 37.832 270.038 Q 40.417 270.513 42.451 272.283 Q 44.584 274.138 45.499 276.884 Q 46.456 279.754 45.811 282.779 Q 45.139 285.932 42.917 288.36 Q 40.607 290.886 37.272 291.917 Q 33.811 292.987 30.219 292.148 Q 26.497 291.279 23.674 288.605 Q 20.755 285.84 19.608 281.916 Q 18.424 277.865 19.458 273.705 Q 20.524 269.415 23.651 266.197 Q 26.87 262.884 31.383 261.622 Q 36.025 260.324 40.754 261.553 Q 45.612 262.815 49.224 266.395 Q 52.932 270.069 54.309 275.171 Q 55.721 280.403 54.297 285.7 Q 52.838 291.127 48.805 295.134 Q 44.677 299.235 38.985 300.727 Q 33.163 302.253 27.297 300.634 Q 21.303 298.979 16.901 294.493 Q 12.406 289.911 10.798 283.629 Q 9.158 277.216 10.973 270.783 Q 12.823 264.22 17.763 259.424 Q 22.799 254.534 29.671 252.812 Q 36.674 251.057 43.676 253.067 Q 50.807 255.114 55.998 260.507 Q 61.281 265.997 63.118 273.459 Q 64.83 280.411 63.106 287.417" style="fill: none; stroke: rgb(255, 242, 0);" transform="matrix(-0.615661, 0.788011, -0.788011, -0.615661, 274.2195, 420.96641)" bx:shape="spiral 34.756 278.972 0 29.581 19 1186.587 1@f5e17652"/>
</svg>