<?xml version="1.0" encoding="utf-8"?>
<svg viewBox="0 0 224.00001 329.94594" xmlns="http://www.w3.org/2000/svg" xmlns:bx="https://boxy-svg.com">
  <defs>
    <linearGradient x1="240" y1="15.02703" x2="240" y2="344.97297" gradientUnits="userSpaceOnUse" id="color-1">
      <stop offset="0" stop-color="#ffee89"/>
      <stop offset="1" stop-color="#000fff"/>
    </linearGradient>
    <style bx:fonts="Abel" bx:pinned="true">@import url(https://fonts.googleapis.com/css2?family=Abel%3Aital%2Cwght%400%2C400&amp;display=swap);</style>
    <style bx:fonts="Open Sans" bx:pinned="true">@import url(https://fonts.googleapis.com/css2?family=Open+Sans%3Aital%2Cwght%400%2C300%3B0%2C400%3B0%2C600%3B0%2C700%3B0%2C800%3B1%2C300%3B1%2C400%3B1%2C600%3B1%2C700%3B1%2C800&amp;display=swap);</style>
  </defs>
  <g transform="matrix(1, 0, 0, 1, -128, -15.02702)">
    <g data-paper-data="{&quot;isPaintingLayer&quot;:true}" fill-rule="nonzero" stroke="none" stroke-linecap="butt" stroke-linejoin="miter" stroke-miterlimit="10" stroke-dasharray="" stroke-dashoffset="0" style="mix-blend-mode: normal">
      <path d="M134,339.97297c0,0 -6,-2.6111 -6,-15.47297c0,-63.85843 0,-257.15162 0,-291c0,-9.90349 5,-12.47297 5,-12.47297c0,0 2.22147,-6 10.20313,-6c24.38543,0 150.47211,0 194,0c9.27111,0 11.79688,4 11.79688,4c0,0 3,3.539 3,12.47297c0,31.8374 0,220.85561 0,289c0,15.27202 -4,16.47297 -4,16.47297c0,0 -5.7326,8 -15.79688,8c-26.8652,0 -146.13545,0 -187,0c-8.30226,0 -11.20313,-5 -11.20313,-5z" fill="url(#color-1)" stroke-width="NaN"/>
      <path d="M142.5,168v-138h195v138z" fill="#000000" stroke-width="0"/>
    </g>
  </g>
  <text style="fill: rgb(255, 253, 192); font-family: &quot;Open Sans&quot;; font-size: 36.2px; white-space: pre;" transform="matrix(0.444742, 0, 0, 0.402196, -86.931091, 96.352875)" x="228.007" y="184.577">&lt;X&gt;</text>
  <text style="fill: rgb(255, 255, 255); font-family: &quot;Open Sans&quot;; font-size: 16.9px; white-space: pre;" x="72.383" y="193.157">Sport: &lt;A&gt;</text>
  <text style="fill: rgb(255, 255, 255); font-family: &quot;Open Sans&quot;; font-size: 16.9px; white-space: pre;" x="72.007" y="217.58">Kultuur: &lt;B&gt;</text>
  <text style="fill: rgb(255, 255, 255); font-family: &quot;Open Sans&quot;; font-size: 16.9px; white-space: pre;" x="70.799" y="241.407">Akademie: &lt;C&gt;</text>
  <path d="M -0.255 -170.472 Q 0.009 -170.817 0.503 -170.821 Q 1.047 -170.826 1.502 -170.401 Q 2.012 -169.925 2.13 -169.156 Q 2.262 -168.295 1.838 -167.448 Q 1.366 -166.505 0.387 -165.946 Q -0.691 -165.331 -2.002 -165.398 Q -3.431 -165.472 -4.661 -166.332 Q -5.992 -167.261 -6.666 -168.813 Q -7.389 -170.479 -7.134 -172.346 Q -6.861 -174.338 -5.559 -175.957 Q -4.177 -177.674 -2.046 -178.463 Q 0.204 -179.297 2.63 -178.851 Q 5.183 -178.383 7.192 -176.635 Q 9.297 -174.803 10.201 -172.092 Q 11.146 -169.258 10.509 -166.271 Q 9.845 -163.157 7.652 -160.759 Q 5.37 -158.265 2.078 -157.247 Q -1.34 -156.19 -4.887 -157.019 Q -8.562 -157.877 -11.35 -160.518 Q -14.233 -163.248 -15.365 -167.123 Q -16.534 -171.123 -15.513 -175.231 Q -14.46 -179.467 -11.373 -182.645 Q -8.194 -185.917 -3.737 -187.163 Q 0.846 -188.444 5.516 -187.231 Q 10.313 -185.984 13.88 -182.449 Q 17.541 -178.822 18.9 -173.783 Q 20.295 -168.617 18.888 -163.386 Q 17.448 -158.028 13.466 -154.071 Q 9.39 -150.021 3.769 -148.548 Q -1.98 -147.041 -7.772 -148.64 Q -13.692 -150.274 -18.038 -154.704 Q -22.477 -159.228 -24.064 -165.432 Q -25.684 -171.763 -23.892 -178.117 Q -22.064 -184.597 -17.187 -189.333 Q -12.214 -194.161 -5.428 -195.862 Q 1.487 -197.595 8.401 -195.61 Q 15.443 -193.589 20.568 -188.263 Q 25.786 -182.843 27.6 -175.474 Q 29.445 -167.976 27.268 -160.501 Q 25.486 -154.386 21.308 -149.521" style="fill: none; fill-rule: nonzero; stroke: rgb(224, 253, 0);" transform="matrix(-0.573576, -0.819152, 0.819152, -0.573576, 171.689072, 116.548676)" bx:shape="spiral -0.407 -170.03 0 29.869 19 1213.363 1@698ece3d"/>
  <path d="M 177.692 290.431 Q 177.956 290.086 178.45 290.082 Q 178.994 290.077 179.449 290.502 Q 179.959 290.978 180.077 291.747 Q 180.209 292.608 179.785 293.455 Q 179.313 294.398 178.334 294.957 Q 177.256 295.572 175.945 295.505 Q 174.516 295.431 173.286 294.571 Q 171.955 293.642 171.281 292.09 Q 170.558 290.424 170.813 288.557 Q 171.086 286.565 172.388 284.946 Q 173.77 283.229 175.901 282.44 Q 178.151 281.606 180.577 282.052 Q 183.13 282.52 185.139 284.268 Q 187.244 286.1 188.148 288.811 Q 189.093 291.645 188.456 294.632 Q 187.792 297.746 185.599 300.144 Q 183.317 302.638 180.025 303.656 Q 176.607 304.713 173.06 303.884 Q 169.385 303.026 166.597 300.385 Q 163.714 297.655 162.582 293.78 Q 161.413 289.78 162.434 285.672 Q 163.487 281.436 166.574 278.258 Q 169.753 274.986 174.21 273.74 Q 178.793 272.459 183.463 273.672 Q 188.26 274.919 191.827 278.454 Q 195.488 282.081 196.847 287.12 Q 198.242 292.286 196.835 297.517 Q 195.395 302.875 191.413 306.832 Q 187.337 310.882 181.716 312.355 Q 175.967 313.862 170.175 312.263 Q 164.255 310.629 159.909 306.199 Q 155.47 301.675 153.883 295.471 Q 152.263 289.14 154.055 282.786 Q 155.883 276.306 160.76 271.57 Q 165.733 266.742 172.519 265.041 Q 179.434 263.308 186.348 265.293 Q 193.39 267.314 198.515 272.64 Q 203.733 278.06 205.547 285.429 Q 207.392 292.927 205.215 300.402 Q 203.433 306.517 199.255 311.382" style="fill: none; fill-rule: nonzero; stroke: rgb(224, 253, 0);" transform="matrix(1, 0, 0, 1, 12.86565, -7.438281)" bx:shape="spiral 177.54 290.873 0 29.869 19 1213.363 1@6080dec8"/>
  <text style="fill: rgb(255, 255, 255); font-family: Abel; font-size: 11.6px; white-space: pre;" x="45.703" y="321.948">© Unikaarte</text>
</svg>