<?xml version="1.0" encoding="utf-8"?>
<svg viewBox="0 0 224.00001 329.94594" xmlns="http://www.w3.org/2000/svg" xmlns:bx="https://boxy-svg.com">
  <defs>
    <linearGradient x1="240" y1="15.02703" x2="240" y2="344.97297" gradientUnits="userSpaceOnUse" id="color-1">
      <stop offset="0" stop-color="#ffee89"/>
      <stop offset="1" stop-color="#000fff"/>
    </linearGradient>
    <style bx:fonts="Open Sans" bx:pinned="true">@import url(https://fonts.googleapis.com/css2?family=Open+Sans%3Aital%2Cwght%400%2C300%3B0%2C400%3B0%2C600%3B0%2C700%3B0%2C800%3B1%2C300%3B1%2C400%3B1%2C600%3B1%2C700%3B1%2C800&amp;display=swap);</style>
  </defs>
  <g transform="matrix(1, 0, 0, 1, -128, -15.02702)">
    <g data-paper-data="{&quot;isPaintingLayer&quot;:true}" fill-rule="nonzero" stroke="none" stroke-linecap="butt" stroke-linejoin="miter" stroke-miterlimit="10" stroke-dasharray="" stroke-dashoffset="0" style="mix-blend-mode: normal">
      <path d="M134,339.97297c0,0 -6,-2.6111 -6,-15.47297c0,-63.85843 0,-257.15162 0,-291c0,-9.90349 5,-12.47297 5,-12.47297c0,0 2.22147,-6 10.20313,-6c24.38543,0 150.47211,0 194,0c9.27111,0 11.79688,4 11.79688,4c0,0 3,3.539 3,12.47297c0,31.8374 0,220.85561 0,289c0,15.27202 -4,16.47297 -4,16.47297c0,0 -5.7326,8 -15.79688,8c-26.8652,0 -146.13545,0 -187,0c-8.30226,0 -11.20313,-5 -11.20313,-5z" fill="url(#color-1)" stroke-width="NaN"/>
      <path d="M142.5,168v-138h195v138z" fill="#000000" stroke-width="0"/>
    </g>
  </g>
  <text style="fill: rgb(255, 253, 192); font-family: &quot;Open Sans&quot;; font-size: 36.2px; white-space: pre;" transform="matrix(0.444742, 0, 0, 0.402196, -86.931091, 96.352875)" x="228.007" y="184.577">&lt;X&gt;</text>
  <text style="fill: rgb(255, 255, 255); font-family: &quot;Open Sans&quot;; font-size: 16.9px; white-space: pre;" x="48.255" y="203.411">Sport: &lt;A&gt;</text>
  <text style="fill: rgb(255, 255, 255); font-family: &quot;Open Sans&quot;; font-size: 16.9px; white-space: pre;" x="47.879" y="227.834">Kultuur: &lt;B&gt;</text>
  <text style="fill: rgb(255, 255, 255); font-family: &quot;Open Sans&quot;; font-size: 16.9px; white-space: pre;" x="46.671" y="251.661">Akademie: &lt;C&gt;</text>
</svg>