<svg version="1.1" xmlns="http://www.w3.org/2000/svg" xmlns:xlink="http://www.w3.org/1999/xlink" width="224.00001" height="329.94594" viewBox="0,0,224.00001,329.94594"><defs><linearGradient x1="240" y1="15.02703" x2="240" y2="344.97297" gradientUnits="userSpaceOnUse" id="color-1"><stop offset="0" stop-color="#ffee89"/><stop offset="1" stop-color="#000fff"/></linearGradient></defs><g transform="translate(-128,-15.02702)"><g data-paper-data="{&quot;isPaintingLayer&quot;:true}" fill-rule="nonzero" stroke="none" stroke-linecap="butt" stroke-linejoin="miter" stroke-miterlimit="10" stroke-dasharray="" stroke-dashoffset="0" style="mix-blend-mode: normal"><path d="M134,339.97297c0,0 -6,-2.6111 -6,-15.47297c0,-63.85843 0,-257.15162 0,-291c0,-9.90349 5,-12.47297 5,-12.47297c0,0 2.22147,-6 10.20313,-6c24.38543,0 150.47211,0 194,0c9.27111,0 11.79688,4 11.79688,4c0,0 3,3.539 3,12.47297c0,31.8374 0,220.85561 0,289c0,15.27202 -4,16.47297 -4,16.47297c0,0 -5.7326,8 -15.79688,8c-26.8652,0 -146.13545,0 -187,0c-8.30226,0 -11.20313,-5 -11.20313,-5z" fill="url(#color-1)" stroke-width="NaN"/><text transform="translate(143.20313,182.70604) scale(0.33905,0.33905)" font-size="40" xml:space="preserve" fill="#ffffff" fill-rule="nonzero" stroke="none" stroke-width="1" stroke-linecap="butt" stroke-linejoin="miter" stroke-miterlimit="10" stroke-dasharray="" stroke-dashoffset="0" font-family="Sans Serif" font-weight="normal" text-anchor="start" style="mix-blend-mode: normal"><tspan x="0" dy="0">&lt;X&gt;</tspan></text><text transform="translate(160.74852,219.02981) scale(0.43564,0.43564)" font-size="40" xml:space="preserve" fill="#faffaf" fill-rule="nonzero" stroke="none" stroke-width="1" stroke-linecap="butt" stroke-linejoin="miter" stroke-miterlimit="10" stroke-dasharray="" stroke-dashoffset="0" font-family="Sans Serif" font-weight="normal" text-anchor="start" style="mix-blend-mode: normal"><tspan x="0" dy="0">Sport: &lt;A&gt;</tspan></text><text transform="translate(159.87724,240.81176) scale(0.43564,0.43564)" font-size="40" xml:space="preserve" fill="#faffaf" fill-rule="nonzero" stroke="none" stroke-width="1" stroke-linecap="butt" stroke-linejoin="miter" stroke-miterlimit="10" stroke-dasharray="" stroke-dashoffset="0" font-family="Sans Serif" font-weight="normal" text-anchor="start" style="mix-blend-mode: normal"><tspan x="0" dy="0">Kultuur: &lt;B&gt;</tspan></text><text transform="translate(159.87724,260.13391) scale(0.43564,0.43564)" font-size="40" xml:space="preserve" fill="#faffaf" fill-rule="nonzero" stroke="none" stroke-width="1" stroke-linecap="butt" stroke-linejoin="miter" stroke-miterlimit="10" stroke-dasharray="" stroke-dashoffset="0" font-family="Sans Serif" font-weight="normal" text-anchor="start" style="mix-blend-mode: normal"><tspan x="0" dy="0">Akademie: &lt;C&gt;</tspan></text><path d="M142.5,168v-138h195v138z" fill="#000000" stroke-width="0"/></g></g></svg>
